<svg width="25" height="25" viewBox="0 0 25 25" fill="none" xmlns="http://www.w3.org/2000/svg">
<path d="M24.5 8.5C24.5 8.225 24.275 8 24 8H17.5C17.225 8 17 7.775 17 7.5V1C17 0.725 16.775 0.5 16.5 0.5H8.5C8.225 0.5 8 0.725 8 1V7.5C8 7.775 7.775 8 7.5 8H1C0.725 8 0.5 8.225 0.5 8.5V16.5C0.5 16.775 0.725 17 1 17H7.5C7.775 17 8 17.225 8 17.5V24C8 24.275 8.225 24.5 8.5 24.5H16.5C16.775 24.5 17 24.275 17 24V17.5C17 17.225 17.225 17 17.5 17H24C24.275 17 24.5 16.775 24.5 16.5V8.5Z" fill="#4E586E"/>
</svg>
