<svg width="24" height="24" viewBox="0 0 24 24" fill="none" xmlns="http://www.w3.org/2000/svg">
<path d="M3 22C4.1 22 5 21.1 5 20V13C5 11.9 4.1 11 3 11C1.9 11 1 11.9 1 13V20C1 21.1 1.9 22 3 22ZM11.37 16.43L12.84 16.94C12.95 16.98 13.06 17 13.17 17H20C21.11 17 22 17.89 22.01 19L14.62 21.77C14.22 21.92 13.78 21.94 13.37 21.82L7 20.02V11H8.6C8.84 11 9.08 11.04 9.3 11.13L16.23 13.72C16.4897 13.8165 16.7073 14.0011 16.8447 14.2417C16.9821 14.4823 17.0307 14.7635 16.9818 15.0363C16.933 15.309 16.7899 15.5559 16.5776 15.7339C16.3652 15.9119 16.0971 16.0096 15.82 16.01H13.19C13.07 16.01 12.95 15.99 12.83 15.94L11.71 15.51C11.45 15.41 11.16 15.55 11.07 15.81C10.98 16.06 11.11 16.34 11.37 16.43ZM20.16 5.89996L15.16 2.32996C14.46 1.82996 13.53 1.82996 12.84 2.32996L7.84 5.89996C7.31 6.27996 7 6.87996 7 7.52996V8.99996H8.61C8.86 8.99996 9.12 9.04996 9.35 9.13996L17.14 12.25C18.26 12.71 19 13.79 19 15H21V7.52996C21 6.87996 20.69 6.27996 20.16 5.89996ZM13 9.99996C12.72 9.99996 12.5 9.77996 12.5 9.49996C12.5 9.21996 12.72 8.99996 13 8.99996C13.28 8.99996 13.5 9.21996 13.5 9.49996C13.5 9.77996 13.28 9.99996 13 9.99996ZM13 7.99996C12.72 7.99996 12.5 7.77996 12.5 7.49996C12.5 7.21996 12.72 6.99996 13 6.99996C13.28 6.99996 13.5 7.21996 13.5 7.49996C13.5 7.77996 13.28 7.99996 13 7.99996ZM15 9.99996C14.72 9.99996 14.5 9.77996 14.5 9.49996C14.5 9.21996 14.72 8.99996 15 8.99996C15.28 8.99996 15.5 9.21996 15.5 9.49996C15.5 9.77996 15.28 9.99996 15 9.99996ZM15 7.99996C14.72 7.99996 14.5 7.77996 14.5 7.49996C14.5 7.21996 14.72 6.99996 15 6.99996C15.28 6.99996 15.5 7.21996 15.5 7.49996C15.5 7.77996 15.28 7.99996 15 7.99996Z" fill="#4E586E"/>
</svg>
