<svg width="22" height="22" viewBox="0 0 22 22" fill="none" xmlns="http://www.w3.org/2000/svg">
<g clip-path="url(#clip0)">
<path d="M13.5362 3.54439C13.4751 3.54439 13.3834 3.54439 13.3223 3.57494V1.9555C13.3223 1.28328 12.7723 0.733276 12.1001 0.733276C11.5807 0.733276 11.1529 1.03883 10.9696 1.46661C10.7862 1.03883 10.3584 0.733276 9.839 0.733276C9.16678 0.733276 8.61678 1.28328 8.61678 1.9555V3.57494C8.55566 3.57494 8.464 3.54439 8.40289 3.54439C7.73066 3.54439 7.18066 4.09439 7.18066 4.76661V14.4527C7.18066 15.1249 7.73066 15.6749 8.40289 15.6749C8.739 15.6749 9.07511 15.5222 9.289 15.3083C9.44177 15.3999 9.65566 15.4611 9.839 15.4611V15.5222H12.9251C13.1084 15.6138 13.2918 15.6749 13.5362 15.6749C14.2084 15.6749 14.7584 15.1249 14.7584 14.4527V4.76661C14.7584 4.09439 14.239 3.54439 13.5362 3.54439Z" fill="#EDC0A2"/>
<path d="M20.3805 13.5973C20.2888 13.4445 20.1972 13.3223 20.0749 13.2C19.0055 12.1306 16.7749 12.6806 15.0638 14.3917C13.3527 16.1028 12.8027 18.3639 13.8722 19.4028C13.9638 19.4945 14.0249 19.5556 14.1166 19.6167L16.4999 22H21.9388L21.9999 15.2167L20.3805 13.5973Z" fill="#357BA8"/>
<path d="M18.6695 12.986C18.6084 12.8638 18.5168 12.7416 18.3945 12.6499C16.3168 10.8166 13.964 8.12772 13.964 7.18049V2.35272C13.964 1.68049 13.414 1.13049 12.7418 1.13049C12.0695 1.13049 11.5195 1.68049 11.5195 2.35272V12.2833C11.5195 16.1027 13.7501 18.3027 13.8418 18.3944C14.0251 18.5472 14.2695 18.6694 14.514 18.7305H14.7584C15.3084 18.7305 16.439 18.5166 17.814 17.1416C19.4029 15.5833 19.0973 13.811 18.6695 12.986Z" fill="#FFD3B6"/>
<path d="M6.90535 14.3917C5.19424 12.6806 2.93313 12.1306 1.89424 13.2C1.77202 13.3223 1.68035 13.4445 1.58868 13.5973L-0.0307617 15.2167L-0.000206163 22H5.43868L7.82202 19.6167C7.91368 19.5556 8.00535 19.4945 8.06646 19.4028C9.16646 18.3334 8.61646 16.1028 6.90535 14.3917Z" fill="#357BA8"/>
<path d="M9.22793 1.13049C8.55571 1.13049 8.00571 1.68049 8.00571 2.35272V7.18049C8.00571 8.12772 5.68349 10.8166 3.57515 12.6499C3.45293 12.7416 3.36126 12.8638 3.30015 12.986C2.87237 13.811 2.56682 15.5833 4.12515 17.1722C5.50015 18.5472 6.63071 18.761 7.18071 18.761H7.42515C7.6696 18.7305 7.91404 18.6083 8.09737 18.4249C8.18904 18.3333 10.4196 16.1638 10.4196 12.3138V2.35272C10.4502 1.68049 9.90015 1.13049 9.22793 1.13049Z" fill="#FFD3B6"/>
<path d="M16.6525 4.21662C16.6831 4.21662 16.6831 4.21662 16.7137 4.18606L18.8831 2.96384C18.9137 2.93328 18.9442 2.90273 18.9442 2.87217C18.9442 2.84162 18.9442 2.81106 18.9137 2.7805L17.9664 1.83328C17.9359 1.83328 17.9053 1.80273 17.8442 1.83328C17.8137 1.83328 17.7831 1.86384 17.7525 1.89439L16.5303 4.06384C16.4998 4.12495 16.4998 4.1555 16.5609 4.21662H16.6525Z" fill="#00BEEA"/>
<path d="M3.20829 2.99449L5.37773 4.21671C5.40829 4.21671 5.40829 4.24726 5.43885 4.24726C5.53051 4.24726 5.56107 4.18615 5.56107 4.12504C5.56107 4.09449 5.56107 4.06393 5.53051 4.03337L4.33885 1.89449C4.30829 1.83337 4.27773 1.83337 4.24718 1.83337C4.21662 1.83337 4.18607 1.83337 4.15551 1.86393L3.20829 2.81115C3.17773 2.84171 3.17773 2.87226 3.17773 2.90282C3.17773 2.93337 3.17773 2.96393 3.20829 2.99449Z" fill="#00BEEA"/>
<path d="M18.9749 5.71391C18.9443 5.68335 18.9138 5.68335 18.8832 5.68335L16.4999 6.35557C16.4388 6.35557 16.4082 6.41668 16.4082 6.47779C16.4082 6.53891 16.4388 6.56946 16.4999 6.60002L18.8832 7.27224H18.9138C18.9443 7.27224 18.9749 7.27224 18.9749 7.24168C19.0054 7.21113 19.036 7.18057 19.036 7.15002V5.80557C19.0054 5.77502 19.0054 5.71391 18.9749 5.71391Z" fill="#00BEEA"/>
<path d="M5.62233 6.35557L3.239 5.68335C3.20844 5.68335 3.17789 5.68335 3.14733 5.71391C3.08622 5.71391 3.05566 5.77502 3.05566 5.80557V7.11946C3.05566 7.15002 3.08622 7.18057 3.11678 7.21113C3.14733 7.24168 3.17789 7.24168 3.17789 7.24168H3.20844L5.59178 6.56946C5.65289 6.56946 5.68344 6.50835 5.68344 6.44724C5.68344 6.38613 5.65289 6.35557 5.62233 6.35557Z" fill="#00BEEA"/>
</g>
<defs>
<clipPath id="clip0">
<rect width="22" height="22" fill="white"/>
</clipPath>
</defs>
</svg>
